<svg viewBox="0 0 37 19" xmlns="http://www.w3.org/2000/svg">
<svg xmlns="http://www.w3.org/2000/svg">
<path d="M2,1 L2.8660254,2.5 L1.1339746,2.5 z" fill="none" stroke="black" stroke-width="0.1"/>
</svg>
<svg xmlns="http://www.w3.org/2000/svg">
<path d="M2,4 L1.1339746,5.5 L2.8660254,5.5 z" fill="none" stroke="black" stroke-width="0.1"/>
</svg>
<svg xmlns="http://www.w3.org/2000/svg">
<path d="M5,1 L6,2 L5,3 L4,2 z" fill="none" stroke="black" stroke-width="0.1"/>
</svg>
<svg xmlns="http://www.w3.org/2000/svg">
<path d="M5,4 L5,6 z" fill="none" stroke="blue" stroke-width="0.1"/>
<path d="M6,5 L4,5 z" fill="none" stroke="red" stroke-width="0.1"/>
</svg>
<svg xmlns="http://www.w3.org/2000/svg">
<path d="M5,7 L4,8 L5,9 L6,8 z" fill="none" stroke="black" stroke-width="0.1"/>
</svg>
<svg xmlns="http://www.w3.org/2000/svg">
<path d="M8,1 L8.9510565,1.690983 L8.587786,2.809017 L7.4122148,2.809017 L7.0489435,1.690983 z" fill="none" stroke="black" stroke-width="0.1"/>
</svg>
<svg xmlns="http://www.w3.org/2000/svg">
<path d="M8,4 L8.587786,5.809017 L7.0489435,4.690983 L8.9510565,4.690983 L7.4122148,5.809017 z" fill="none" stroke="black" stroke-width="0.1"/>
</svg>
<svg xmlns="http://www.w3.org/2000/svg">
<path d="M8,7 L7.4122148,8.809017 L8.9510565,7.690983 L7.0489435,7.690983 L8.587786,8.809017 z" fill="none" stroke="black" stroke-width="0.1"/>
</svg>
<svg xmlns="http://www.w3.org/2000/svg">
<path d="M8,10 L7.0489435,10.690983 L7.4122148,11.809017 L8.587786,11.809017 L8.9510565,10.690983 z" fill="none" stroke="black" stroke-width="0.1"/>
</svg>
<svg xmlns="http://www.w3.org/2000/svg">
<path d="M11,1 L11.866025,1.5 L11.866025,2.5 L11,3 L10.133975,2.5 L10.133975,1.5 z" fill="none" stroke="black" stroke-width="0.1"/>
</svg>
<svg xmlns="http://www.w3.org/2000/svg">
<path d="M11,4 L11.866025,5.5 L10.133975,5.5 z" fill="none" stroke="blue" stroke-width="0.1"/>
<path d="M11.866025,4.5 L11,6 L10.133975,4.5 z" fill="none" stroke="red" stroke-width="0.1"/>
</svg>
<svg xmlns="http://www.w3.org/2000/svg">
<path d="M11,7 L11,9 z" fill="none" stroke="blue" stroke-width="0.1"/>
<path d="M11.866025,7.5 L10.133975,8.5 z" fill="none" stroke="red" stroke-width="0.1"/>
<path d="M11.866025,8.5 L10.133975,7.5 z" fill="none" stroke="green" stroke-width="0.1"/>
</svg>
<svg xmlns="http://www.w3.org/2000/svg">
<path d="M11,10 L10.133975,11.5 L11.866025,11.5 z" fill="none" stroke="blue" stroke-width="0.1"/>
<path d="M11.866025,10.5 L10.133975,10.5 L11,12 z" fill="none" stroke="red" stroke-width="0.1"/>
</svg>
<svg xmlns="http://www.w3.org/2000/svg">
<path d="M11,13 L10.133975,13.5 L10.133975,14.5 L11,15 L11.866025,14.5 L11.866025,13.5 z" fill="none" stroke="black" stroke-width="0.1"/>
</svg>
<svg xmlns="http://www.w3.org/2000/svg">
<path d="M14,1 L14.781832,1.3765101 L14.974928,2.2225208 L14.433884,2.9009688 L13.566116,2.9009688 L13.025072,2.2225208 L13.218168,1.3765101 z" fill="none" stroke="black" stroke-width="0.1"/>
</svg>
<svg xmlns="http://www.w3.org/2000/svg">
<path d="M14,4 L14.974928,5.222521 L13.566116,5.900969 L13.218168,4.37651 L14.781832,4.37651 L14.433884,5.900969 L13.025072,5.222521 z" fill="none" stroke="black" stroke-width="0.1"/>
</svg>
<svg xmlns="http://www.w3.org/2000/svg">
<path d="M14,7 L14.433884,8.900969 L13.218168,7.37651 L14.974928,8.222521 L13.025072,8.222521 L14.781832,7.37651 L13.566116,8.900969 z" fill="none" stroke="black" stroke-width="0.1"/>
</svg>
<svg xmlns="http://www.w3.org/2000/svg">
<path d="M14,10 L13.566116,11.900969 L14.781832,10.376511 L13.025072,11.222521 L14.974928,11.222521 L13.218168,10.376511 L14.433884,11.900969 z" fill="none" stroke="black" stroke-width="0.1"/>
</svg>
<svg xmlns="http://www.w3.org/2000/svg">
<path d="M14,13 L13.025072,14.222521 L14.433884,14.900969 L14.781832,13.376511 L13.218168,13.376511 L13.566116,14.900969 L14.974928,14.222521 z" fill="none" stroke="black" stroke-width="0.1"/>
</svg>
<svg xmlns="http://www.w3.org/2000/svg">
<path d="M14,16 L13.218168,16.37651 L13.025072,17.22252 L13.566116,17.900969 L14.433884,17.900969 L14.974928,17.22252 L14.781832,16.37651 z" fill="none" stroke="black" stroke-width="0.1"/>
</svg>
<svg xmlns="http://www.w3.org/2000/svg">
<path d="M17,1 L17.707108,1.2928932 L18,2 L17.707108,2.7071068 L17,3 L16.292892,2.7071068 L16,2 L16.292892,1.2928932 z" fill="none" stroke="black" stroke-width="0.1"/>
</svg>
<svg xmlns="http://www.w3.org/2000/svg">
<path d="M17,4 L18,5 L17,6 L16,5 z" fill="none" stroke="blue" stroke-width="0.1"/>
<path d="M17.707108,4.2928934 L17.707108,5.7071066 L16.292892,5.7071066 L16.292892,4.2928934 z" fill="none" stroke="red" stroke-width="0.1"/>
</svg>
<svg xmlns="http://www.w3.org/2000/svg">
<path d="M17,7 L17.707108,8.707107 L16,8 L17.707108,7.2928934 L17,9 L16.292892,7.2928934 L18,8 L16.292892,8.707107 z" fill="none" stroke="black" stroke-width="0.1"/>
</svg>
<svg xmlns="http://www.w3.org/2000/svg">
<path d="M17,10 L17,12 z" fill="none" stroke="blue" stroke-width="0.1"/>
<path d="M17.707108,10.292893 L16.292892,11.707107 z" fill="none" stroke="red" stroke-width="0.1"/>
<path d="M18,11 L16,11 z" fill="none" stroke="green" stroke-width="0.1"/>
<path d="M17.707108,11.707107 L16.292892,10.292893 z" fill="none" stroke="yellow" stroke-width="0.1"/>
</svg>
<svg xmlns="http://www.w3.org/2000/svg">
<path d="M17,13 L16.292892,14.707107 L18,14 L16.292892,13.292893 L17,15 L17.707108,13.292893 L16,14 L17.707108,14.707107 z" fill="none" stroke="black" stroke-width="0.1"/>
</svg>
<svg xmlns="http://www.w3.org/2000/svg">
<path d="M17,16 L16,17 L17,18 L18,17 z" fill="none" stroke="blue" stroke-width="0.1"/>
<path d="M17.707108,16.292892 L16.292892,16.292892 L16.292892,17.707108 L17.707108,17.707108 z" fill="none" stroke="red" stroke-width="0.1"/>
</svg>
<svg xmlns="http://www.w3.org/2000/svg">
<path d="M20,1 L20.642788,1.2339555 L20.984808,1.8263519 L20.866026,2.5 L20.34202,2.9396927 L19.65798,2.9396927 L19.133974,2.5 L19.015192,1.8263519 L19.357212,1.2339555 z" fill="none" stroke="black" stroke-width="0.1"/>
</svg>
<svg xmlns="http://www.w3.org/2000/svg">
<path d="M20,4 L20.984808,4.8263516 L20.34202,5.9396925 L19.133974,5.5 L19.357212,4.2339554 L20.642788,4.2339554 L20.866026,5.5 L19.65798,5.9396925 L19.015192,4.8263516 z" fill="none" stroke="black" stroke-width="0.1"/>
</svg>
<svg xmlns="http://www.w3.org/2000/svg">
<path d="M20,7 L20.866026,8.5 L19.133974,8.5 z" fill="none" stroke="blue" stroke-width="0.1"/>
<path d="M20.642788,7.2339554 L20.34202,8.9396925 L19.015192,7.8263516 z" fill="none" stroke="red" stroke-width="0.1"/>
<path d="M20.984808,7.8263516 L19.65798,8.9396925 L19.357212,7.2339554 z" fill="none" stroke="green" stroke-width="0.1"/>
</svg>
<svg xmlns="http://www.w3.org/2000/svg">
<path d="M20,10 L20.34202,11.9396925 L19.357212,10.233955 L20.866026,11.5 L19.015192,10.826352 L20.984808,10.826352 L19.133974,11.5 L20.642788,10.233955 L19.65798,11.9396925 z" fill="none" stroke="black" stroke-width="0.1"/>
</svg>
<svg xmlns="http://www.w3.org/2000/svg">
<path d="M20,13 L19.65798,14.9396925 L20.642788,13.233955 L19.133974,14.5 L20.984808,13.826352 L19.015192,13.826352 L20.866026,14.5 L19.357212,13.233955 L20.34202,14.9396925 z" fill="none" stroke="black" stroke-width="0.1"/>
</svg>
<svg xmlns="http://www.w3.org/2000/svg">
<path d="M20,16 L19.133974,17.5 L20.866026,17.5 z" fill="none" stroke="blue" stroke-width="0.1"/>
<path d="M20.642788,16.233955 L19.015192,16.826351 L20.34202,17.939693 z" fill="none" stroke="red" stroke-width="0.1"/>
<path d="M20.984808,16.826351 L19.357212,16.233955 L19.65798,17.939693 z" fill="none" stroke="green" stroke-width="0.1"/>
</svg>
<svg xmlns="http://www.w3.org/2000/svg">
<path d="M23,1 L23.587786,1.190983 L23.951057,1.690983 L23.951057,2.309017 L23.587786,2.809017 L23,3 L22.412214,2.809017 L22.048943,2.309017 L22.048943,1.690983 L22.412214,1.190983 z" fill="none" stroke="black" stroke-width="0.1"/>
</svg>
<svg xmlns="http://www.w3.org/2000/svg">
<path d="M23,4 L23.951057,4.690983 L23.587786,5.809017 L22.412214,5.809017 L22.048943,4.690983 z" fill="none" stroke="blue" stroke-width="0.1"/>
<path d="M23.587786,4.190983 L23.951057,5.309017 L23,6 L22.048943,5.309017 L22.412214,4.190983 z" fill="none" stroke="red" stroke-width="0.1"/>
</svg>
<svg xmlns="http://www.w3.org/2000/svg">
<path d="M23,7 L23.951057,8.309017 L22.412214,8.809017 L22.412214,7.190983 L23.951057,7.690983 L23,9 L22.048943,7.690983 L23.587786,7.190983 L23.587786,8.809017 L22.048943,8.309017 z" fill="none" stroke="black" stroke-width="0.1"/>
</svg>
<svg xmlns="http://www.w3.org/2000/svg">
<path d="M23,10 L23.587786,11.809017 L22.048943,10.690983 L23.951057,10.690983 L22.412214,11.809017 z" fill="none" stroke="blue" stroke-width="0.1"/>
<path d="M23.587786,10.190983 L23,12 L22.412214,10.190983 L23.951057,11.309017 L22.048943,11.309017 z" fill="none" stroke="red" stroke-width="0.1"/>
</svg>
<svg xmlns="http://www.w3.org/2000/svg">
<path d="M23,13 L23,15 z" fill="none" stroke="blue" stroke-width="0.1"/>
<path d="M23.587786,13.190983 L22.412214,14.809017 z" fill="none" stroke="red" stroke-width="0.1"/>
<path d="M23.951057,13.690983 L22.048943,14.309017 z" fill="none" stroke="green" stroke-width="0.1"/>
<path d="M23.951057,14.309017 L22.048943,13.690983 z" fill="none" stroke="yellow" stroke-width="0.1"/>
<path d="M23.587786,14.809017 L22.412214,13.190983 z" fill="none" stroke="purple" stroke-width="0.1"/>
</svg>
<svg xmlns="http://www.w3.org/2000/svg">
<path d="M23,16 L22.412214,17.809017 L23.951057,16.690983 L22.048943,16.690983 L23.587786,17.809017 z" fill="none" stroke="blue" stroke-width="0.1"/>
<path d="M23.587786,16.190983 L22.048943,17.309017 L23.951057,17.309017 L22.412214,16.190983 L23,18 z" fill="none" stroke="red" stroke-width="0.1"/>
</svg>
<svg xmlns="http://www.w3.org/2000/svg">
<path d="M26,1 L26.54064,1.1587465 L26.909632,1.584585 L26.989822,2.142315 L26.755749,2.6548607 L26.281733,2.959493 L25.718267,2.959493 L25.244251,2.6548607 L25.010178,2.142315 L25.090368,1.584585 L25.45936,1.1587465 z" fill="none" stroke="black" stroke-width="0.1"/>
</svg>
<svg xmlns="http://www.w3.org/2000/svg">
<path d="M26,4 L26.909632,4.584585 L26.755749,5.6548605 L25.718267,5.959493 L25.010178,5.142315 L25.45936,4.1587462 L26.54064,4.1587462 L26.989822,5.142315 L26.281733,5.959493 L25.244251,5.6548605 L25.090368,4.584585 z" fill="none" stroke="black" stroke-width="0.1"/>
</svg>
<svg xmlns="http://www.w3.org/2000/svg">
<path d="M26,7 L26.989822,8.142315 L25.718267,8.959493 L25.090368,7.584585 L26.54064,7.1587462 L26.755749,8.6548605 L25.244251,8.6548605 L25.45936,7.1587462 L26.909632,7.584585 L26.281733,8.959493 L25.010178,8.142315 z" fill="none" stroke="black" stroke-width="0.1"/>
</svg>
<svg xmlns="http://www.w3.org/2000/svg">
<path d="M26,10 L26.755749,11.6548605 L25.010178,11.142315 L26.54064,10.158747 L26.281733,11.959493 L25.090368,10.584585 L26.909632,10.584585 L25.718267,11.959493 L25.45936,10.158747 L26.989822,11.142315 L25.244251,11.6548605 z" fill="none" stroke="black" stroke-width="0.1"/>
</svg>
<svg xmlns="http://www.w3.org/2000/svg">
<path d="M26,13 L26.281733,14.959493 L25.45936,13.158747 L26.755749,14.6548605 L25.090368,13.584585 L26.989822,14.142315 L25.010178,14.142315 L26.909632,13.584585 L25.244251,14.6548605 L26.54064,13.158747 L25.718267,14.959493 z" fill="none" stroke="black" stroke-width="0.1"/>
</svg>
<svg xmlns="http://www.w3.org/2000/svg">
<path d="M26,16 L25.718267,17.959494 L26.54064,16.158747 L25.244251,17.654861 L26.909632,16.584585 L25.010178,17.142315 L26.989822,17.142315 L25.090368,16.584585 L26.755749,17.654861 L25.45936,16.158747 L26.281733,17.959494 z" fill="none" stroke="black" stroke-width="0.1"/>
</svg>
<svg xmlns="http://www.w3.org/2000/svg">
<path d="M29,1 L29.5,1.1339746 L29.866026,1.5 L30,2 L29.866026,2.5 L29.5,2.8660254 L29,3 L28.5,2.8660254 L28.133974,2.5 L28,2 L28.133974,1.5 L28.5,1.1339746 z" fill="none" stroke="black" stroke-width="0.1"/>
</svg>
<svg xmlns="http://www.w3.org/2000/svg">
<path d="M29,4 L29.866026,4.5 L29.866026,5.5 L29,6 L28.133974,5.5 L28.133974,4.5 z" fill="none" stroke="blue" stroke-width="0.1"/>
<path d="M29.5,4.1339746 L30,5 L29.5,5.8660254 L28.5,5.8660254 L28,5 L28.5,4.1339746 z" fill="none" stroke="red" stroke-width="0.1"/>
</svg>
<svg xmlns="http://www.w3.org/2000/svg">
<path d="M29,7 L30,8 L29,9 L28,8 z" fill="none" stroke="blue" stroke-width="0.1"/>
<path d="M29.5,7.1339746 L29.866026,8.5 L28.5,8.866025 L28.133974,7.5 z" fill="none" stroke="red" stroke-width="0.1"/>
<path d="M29.866026,7.5 L29.5,8.866025 L28.133974,8.5 L28.5,7.1339746 z" fill="none" stroke="green" stroke-width="0.1"/>
</svg>
<svg xmlns="http://www.w3.org/2000/svg">
<path d="M29,10 L29.866026,11.5 L28.133974,11.5 z" fill="none" stroke="blue" stroke-width="0.1"/>
<path d="M29.5,10.133975 L29.5,11.866025 L28,11 z" fill="none" stroke="red" stroke-width="0.1"/>
<path d="M29.866026,10.5 L29,12 L28.133974,10.5 z" fill="none" stroke="green" stroke-width="0.1"/>
<path d="M30,11 L28.5,11.866025 L28.5,10.133975 z" fill="none" stroke="yellow" stroke-width="0.1"/>
</svg>
<svg xmlns="http://www.w3.org/2000/svg">
<path d="M29,13 L29.5,14.866025 L28.133974,13.5 L30,14 L28.133974,14.5 L29.5,13.133975 L29,15 L28.5,13.133975 L29.866026,14.5 L28,14 L29.866026,13.5 L28.5,14.866025 z" fill="none" stroke="black" stroke-width="0.1"/>
</svg>
<svg xmlns="http://www.w3.org/2000/svg">
<path d="M29,16 L29,18 z" fill="none" stroke="blue" stroke-width="0.1"/>
<path d="M29.5,16.133974 L28.5,17.866026 z" fill="none" stroke="red" stroke-width="0.1"/>
<path d="M29.866026,16.5 L28.133974,17.5 z" fill="none" stroke="green" stroke-width="0.1"/>
<path d="M30,17 L28,17 z" fill="none" stroke="yellow" stroke-width="0.1"/>
<path d="M29.866026,17.5 L28.133974,16.5 z" fill="none" stroke="purple" stroke-width="0.1"/>
<path d="M29.5,17.866026 L28.5,16.133974 z" fill="none" stroke="cyan" stroke-width="0.1"/>
</svg>
<svg xmlns="http://www.w3.org/2000/svg">
<path d="M32,1 L32.46472,1.1145439 L32.822983,1.4319353 L32.99271,1.8794633 L32.935017,2.354605 L32.663124,2.7485108 L32.239315,2.9709418 L31.760685,2.9709418 L31.336878,2.7485108 L31.064983,2.354605 L31.007292,1.8794633 L31.177015,1.4319353 L31.535276,1.1145439 z" fill="none" stroke="black" stroke-width="0.1"/>
</svg>
<svg xmlns="http://www.w3.org/2000/svg">
<path d="M32,4 L32.822983,4.4319353 L32.935017,5.3546047 L32.239315,5.970942 L31.336878,5.748511 L31.007292,4.879463 L31.535276,4.114544 L32.46472,4.114544 L32.99271,4.879463 L32.663124,5.748511 L31.760685,5.970942 L31.064983,5.3546047 L31.177015,4.4319353 z" fill="none" stroke="black" stroke-width="0.1"/>
</svg>
<svg xmlns="http://www.w3.org/2000/svg">
<path d="M32,7 L32.99271,7.879463 L32.239315,8.970942 L31.064983,8.354605 L31.535276,7.114544 L32.822983,7.4319353 L32.663124,8.74851 L31.336878,8.74851 L31.177015,7.4319353 L32.46472,7.114544 L32.935017,8.354605 L31.760685,8.970942 L31.007292,7.879463 z" fill="none" stroke="black" stroke-width="0.1"/>
</svg>
<svg xmlns="http://www.w3.org/2000/svg">
<path d="M32,10 L32.935017,11.354605 L31.336878,11.74851 L31.535276,10.114544 L32.99271,10.879463 L31.760685,11.970942 L31.177015,10.431935 L32.822983,10.431935 L32.239315,11.970942 L31.007292,10.879463 L32.46472,10.114544 L32.663124,11.74851 L31.064983,11.354605 z" fill="none" stroke="black" stroke-width="0.1"/>
</svg>
<svg xmlns="http://www.w3.org/2000/svg">
<path d="M32,13 L32.663124,14.74851 L31.007292,13.879463 L32.822983,13.431935 L31.760685,14.970942 L31.535276,13.114544 L32.935017,14.354605 L31.064983,14.354605 L32.46472,13.114544 L32.239315,14.970942 L31.177015,13.431935 L32.99271,13.879463 L31.336878,14.74851 z" fill="none" stroke="black" stroke-width="0.1"/>
</svg>
<svg xmlns="http://www.w3.org/2000/svg">
<path d="M32,16 L32.239315,17.970942 L31.535276,16.114544 L32.663124,17.74851 L31.177015,16.431934 L32.935017,17.354605 L31.007292,16.879463 L32.99271,16.879463 L31.064983,17.354605 L32.822983,16.431934 L31.336878,17.74851 L32.46472,16.114544 L31.760685,17.970942 z" fill="none" stroke="black" stroke-width="0.1"/>
</svg>
<svg xmlns="http://www.w3.org/2000/svg">
<path d="M35,1 L35.433884,1.0990311 L35.78183,1.3765101 L35.97493,1.777479 L35.97493,2.2225208 L35.78183,2.6234899 L35.433884,2.9009688 L35,3 L34.566116,2.9009688 L34.21817,2.6234899 L34.02507,2.2225208 L34.02507,1.777479 L34.21817,1.3765101 L34.566116,1.0990311 z" fill="none" stroke="black" stroke-width="0.1"/>
</svg>
<svg xmlns="http://www.w3.org/2000/svg">
<path d="M35,4 L35.78183,4.37651 L35.97493,5.222521 L35.433884,5.900969 L34.566116,5.900969 L34.02507,5.222521 L34.21817,4.37651 z" fill="none" stroke="blue" stroke-width="0.1"/>
<path d="M35.433884,4.099031 L35.97493,4.777479 L35.78183,5.62349 L35,6 L34.21817,5.62349 L34.02507,4.777479 L34.566116,4.099031 z" fill="none" stroke="red" stroke-width="0.1"/>
</svg>
<svg xmlns="http://www.w3.org/2000/svg">
<path d="M35,7 L35.97493,7.777479 L35.433884,8.900969 L34.21817,8.623489 L34.21817,7.37651 L35.433884,7.099031 L35.97493,8.222521 L35,9 L34.02507,8.222521 L34.566116,7.099031 L35.78183,7.37651 L35.78183,8.623489 L34.566116,8.900969 L34.02507,7.777479 z" fill="none" stroke="black" stroke-width="0.1"/>
</svg>
<svg xmlns="http://www.w3.org/2000/svg">
<path d="M35,10 L35.97493,11.222521 L34.566116,11.900969 L34.21817,10.376511 L35.78183,10.376511 L35.433884,11.900969 L34.02507,11.222521 z" fill="none" stroke="blue" stroke-width="0.1"/>
<path d="M35.433884,10.099031 L35.78183,11.623489 L34.21817,11.623489 L34.566116,10.099031 L35.97493,10.777479 L35,12 L34.02507,10.777479 z" fill="none" stroke="red" stroke-width="0.1"/>
</svg>
<svg xmlns="http://www.w3.org/2000/svg">
<path d="M35,13 L35.78183,14.623489 L34.02507,14.222521 L35.433884,13.099031 L35.433884,14.900969 L34.02507,13.777479 L35.78183,13.376511 L35,15 L34.21817,13.376511 L35.97493,13.777479 L34.566116,14.900969 L34.566116,13.099031 L35.97493,14.222521 L34.21817,14.623489 z" fill="none" stroke="black" stroke-width="0.1"/>
</svg>
<svg xmlns="http://www.w3.org/2000/svg">
<path d="M35,16 L35.433884,17.900969 L34.21817,16.37651 L35.97493,17.22252 L34.02507,17.22252 L35.78183,16.37651 L34.566116,17.900969 z" fill="none" stroke="blue" stroke-width="0.1"/>
<path d="M35.433884,16.099031 L35,18 L34.566116,16.099031 L35.78183,17.62349 L34.02507,16.77748 L35.97493,16.77748 L34.21817,17.62349 z" fill="none" stroke="red" stroke-width="0.1"/>
</svg>
</svg>